<svg width="47" height="47" viewBox="0 0 47 47" fill="none" xmlns="http://www.w3.org/2000/svg">
<rect width="1.43683" height="2.15524" rx="0.718413" transform="matrix(-1 0 0 1 35.562 19.6582)" fill="black"/>
<path d="M36.2801 45.9008H31.9696C34.782 42.7569 36.0191 40.7811 34.8432 35.1246C34.4946 30.8759 35.5391 29.6 40.9497 30.4549C43.7361 30.8952 43.1056 28.6376 44.1826 27.5813C46.0519 24.8251 45.9494 23.4308 44.1826 21.1156L36.2801 16.4459H33.0472V2.36013C33.0472 1.6855 32.3891 1.20202 31.7673 1.4638C27.3774 3.31204 26.0463 6.97924 26.5815 16.4459C23.8913 19.9831 22.2575 21.0714 17.9605 21.1156C9.90074 21.8593 9.20532 29.4488 8.98037 40.9787V40.1538M28.0183 45.9008H20.475M12.9316 45.9008H20.475M20.475 45.9008C24.906 36.4644 25.0155 32.9113 20.1158 30.096" stroke="black" stroke-width="1.5"/>
<path d="M0.75008 41.9508C0.75008 44.3139 2.6658 46.2297 5.02897 46.2297C7.39214 46.2297 9.30786 44.3139 9.30786 41.9508C9.30786 39.5876 7.39214 37.6719 5.02897 37.6719C2.6658 37.6719 0.75008 39.5876 0.75008 41.9508Z" stroke="black" stroke-width="1.5"/>
</svg>
