<svg width="48" height="52" viewBox="0 0 48 52" fill="none" xmlns="http://www.w3.org/2000/svg">
<rect width="1.61652" height="2.42478" rx="0.80826" transform="matrix(-1 0 0 1 38.3335 7.46631)" fill="black"/>
<path d="M42.1703 50.4616H37.3208C35.7392 46.2229 35.2995 41.5717 37.3208 37.1253C39.3421 32.6789 38.2779 30.0259 37.3208 22.9807M37.3208 22.9807C36.3637 15.9356 38.8041 17.1898 43.548 15.7867C48.2918 14.3835 46.3283 8.52344 43.548 8.10819C40.7676 7.69294 40.9586 7.21878 40.9586 7.21878C36.1181 -1.66552 30.8532 -0.458677 24.3886 7.21967C21.768 10.3323 22.4983 13.873 24.3886 15.7866M37.3208 22.9807L23.1769 21.7674M33.2809 7.21967C32.4302 17.8998 27.1614 18.5936 24.3886 15.7866M24.3886 15.7866C23.6368 22.2997 19.1364 28.6376 19.1364 28.6376C19.1364 28.6376 11.9853 41.3916 13.0744 50.4616C13.0744 50.4616 11.4571 51.673 5.39596 50.4616C-0.665179 49.2502 -1.45451 36.1593 9.43645 33.083M32.4719 50.4616H24.9955M17.519 50.4616H24.9955M24.9955 50.4616C31.2595 45.6111 30.0471 35.1037 22.3686 33.083" stroke="black" stroke-width="1.5"/>
</svg>
