<svg width="38" height="55" viewBox="0 0 38 55" fill="none" xmlns="http://www.w3.org/2000/svg">
<rect width="1.61652" height="2.42478" rx="0.80826" transform="matrix(-1 0 0 1 28 13)" fill="black"/>
<path d="M38 49.4453H18.7442M7.86047 49.4453H18.7442M18.7442 49.4453L13.7209 39.0938H7.86047H17.0698C22.6874 35.0627 24.9904 32.209 23.7674 23.3594C26.2525 20.278 27.7023 20.1489 30.4651 22.1172C32.9862 14.3032 30.0605 11.7394 23.7674 7.625C21.0254 5.92525 18.7442 3.07031 19.5814 1M17.4884 7.625C18.8425 9.90417 19.8171 10.8657 22.9302 10.5234C11.2247 15.7995 8.15195 22.1687 2 32.8828L4.51163 32.5279M19.5814 21.2891C20.5732 26.7992 19.7299 29.1963 13.7209 31.2266L4.51163 32.5279M4.51163 32.5279L4.09302 54" stroke="black" stroke-width="1.5"/>
</svg>
